<?xml version="1.0" standalone="no"?>
<!DOCTYPE svg PUBLIC "-//W3C//DTD SVG 20010904//EN"
 "http://www.w3.org/TR/2001/REC-SVG-20010904/DTD/svg10.dtd">
<svg version="1.0" xmlns="http://www.w3.org/2000/svg"
 width="493.000000pt" height="273.000000pt" viewBox="0 0 493.000000 273.000000"
 preserveAspectRatio="xMidYMid meet">

<g transform="translate(0.000000,273.000000) scale(0.100000,-0.100000)"
fill="#000000" stroke="none">
<path d="M650 2550 l0 -40 45 0 45 0 0 40 0 40 -45 0 -45 0 0 -40z"/>
<path d="M2055 2584 c-323 -34 -566 -97 -787 -201 l-98 -46 0 -64 0 -63 -70 0
-70 0 0 -85 0 -85 -108 0 -107 0 -42 -62 c-79 -120 -117 -222 -135 -363 -33
-260 66 -547 275 -798 22 -26 37 -50 35 -53 -3 -2 -27 15 -54 38 -86 76 -78
74 -113 24 -16 -25 -35 -55 -41 -66 -11 -20 -9 -20 615 -20 420 0 625 3 625
10 0 6 -96 164 -213 353 -117 188 -269 432 -337 542 -135 218 -193 288 -255
309 -21 8 -41 18 -42 23 -2 6 16 25 39 44 524 418 1433 562 2232 354 54 -13
103 -28 109 -31 9 -5 9 -4 1 5 -13 15 -213 83 -352 120 -301 81 -523 112 -832
116 -129 2 -253 1 -275 -1z m-864 -1204 c45 -74 108 -177 140 -229 33 -51 59
-95 59 -97 0 -2 -103 -4 -230 -4 l-230 0 -36 -55 c-20 -30 -40 -55 -44 -55 -8
0 -53 115 -53 134 0 6 53 94 118 196 65 102 129 204 144 227 20 32 29 39 38
30 6 -7 48 -73 94 -147z"/>
<path d="M973 2404 c-2 -6 -3 -38 -1 -70 l3 -59 65 0 65 0 0 70 0 70 -64 0
c-37 0 -65 -5 -68 -11z"/>
<path d="M744 2346 c-3 -8 -4 -27 -2 -43 3 -25 7 -28 46 -31 l42 -3 0 45 0 46
-40 0 c-26 0 -43 -5 -46 -14z"/>
<path d="M570 2231 l0 -41 41 0 40 0 -3 38 c-3 35 -5 37 -40 40 l-38 3 0 -40z"/>
<path d="M864 2196 c-3 -8 -4 -31 -2 -52 l3 -39 50 0 50 0 3 53 3 52 -51 0
c-34 0 -52 -5 -56 -14z"/>
<path d="M2136 1801 c-58 -83 -106 -153 -106 -156 0 -3 186 -5 413 -5 461 0
493 -4 541 -61 34 -40 36 -113 5 -153 -48 -61 -43 -61 -524 -66 l-440 -5 0
-305 0 -305 165 0 165 0 3 158 3 157 188 0 188 0 119 -157 119 -158 223 -3
c122 -1 222 0 222 3 0 8 -148 181 -254 298 -43 48 -77 89 -75 90 2 2 29 15 59
30 144 69 219 213 207 395 -13 185 -127 309 -337 367 -55 16 -117 19 -421 22
l-356 5 -107 -151z"/>
<path d="M3510 1345 l0 -605 168 2 167 3 3 218 2 217 273 1 c260 2 338 0 345
-6 7 -6 -79 -177 -118 -236 -62 -93 -230 -253 -345 -330 -273 -182 -565 -288
-968 -351 -122 -19 -180 -22 -417 -22 -339 1 -494 21 -780 100 -102 29 -123
30 -55 3 547 -214 1183 -282 1715 -183 353 65 649 202 851 392 194 182 288
391 288 637 0 220 -85 445 -249 655 -24 30 -48 61 -54 69 -9 12 -8 12 11 3 19
-10 77 -72 177 -187 l26 -30 20 25 c29 37 150 217 150 224 0 3 -272 6 -605 6
l-605 0 0 -605z m976 240 c7 -27 13 -62 13 -77 l1 -28 -325 0 -325 0 0 80 0
80 312 -2 313 -3 11 -50z"/>
<path d="M514 1263 c-6 -10 -82 -128 -168 -263 -86 -134 -156 -248 -156 -252
0 -4 87 -8 194 -8 l193 0 60 93 c95 147 92 127 34 206 -27 38 -71 108 -96 155
-26 47 -48 86 -49 86 0 0 -6 -8 -12 -17z"/>
</g>
</svg>
